# xmcd CD database file
#
# Track frame offsets:
#	150
#	26612
#	63517
#	95175
#	132765
#	155800
#	194995
#	219302
#	234232
#
# Disc length: 3628 seconds
#
# Revision: 6
# Processed by: cddbd v1.5.2PL0 Copyright (c) Steve Scherf et al.
# Submitted via: CDex 1.51
#
DISCID=840e2a09
DTITLE=Dino Saluzzi - Cite de la Musique
DYEAR=1996
DGENRE=Jazz
TTITLE0=Cite de la musique
TTITLE1=Introduccion y milonga del Ausente
TTITLE2=El Rio y el Abuelo
TTITLE3=Zurdo
TTITLE4=Romance
TTITLE5=Winter
TTITLE6=How My Heart Sings
TTITLE7=Gorrion
TTITLE8=Coral para mi Pequeño y Lejano Pueblo
EXTD=Dino Saluzzi: bandoneon\nMarc Johnson: double- bass\nJose M Saluzzi: acoustic guitar\n\nRecorded June 1996\nRainbow Studio, Oslo\nEngineer: Jan Erik Kongshaug\nPhotos: Juan Hitters\nCover Design: Sascha Kleis\nProducedby Manfred Eicher\n\nAn ECM Pro
EXTD=duction YEAR: 1996
EXTT0=
EXTT1=
EXTT2=
EXTT3=
EXTT4=
EXTT5=
EXTT6=
EXTT7=
EXTT8=
PLAYORDER=
